<svg xmlns="http://www.w3.org/2000/svg" width="1600" height="1000" viewBox="0 0 1600 1000">
  <defs>
    <linearGradient id="g" x1="0" y1="1" x2="1" y2="0">
      <stop offset="0" stop-color="#0b1020"/>
      <stop offset="0.55" stop-color="#3e2ec1"/>
      <stop offset="1" stop-color="#4253e2"/>
    </linearGradient>
    <radialGradient id="r" cx="70%" cy="18%" r="85%">
      <stop offset="0" stop-color="#ffffff" stop-opacity="0.24"/>
      <stop offset="1" stop-color="#ffffff" stop-opacity="0"/>
    </radialGradient>
  </defs>
  <rect width="1600" height="1000" fill="url(#g)"/>
  <rect width="1600" height="1000" fill="url(#r)"/>
  <g fill="#fff">
    <text x="160" y="270" font-family="Inter, system-ui, -apple-system, Segoe UI, Roboto, Arial" font-size="34" letter-spacing="4" fill-opacity="0.92">PORTFOLIO</text>
    <text x="160" y="360" font-family="Poppins, system-ui, -apple-system, Segoe UI, Roboto, Arial" font-size="92" font-weight="700">Dirty100</text>
    <text x="160" y="438" font-family="Inter, system-ui, -apple-system, Segoe UI, Roboto, Arial" font-size="34" fill-opacity="0.82">Motocross ranking platform • Custom scoring • Leaderboards</text>
  </g>
  <g transform="translate(160 520)">
    <rect width="1280" height="320" rx="60" fill="#ffffff" fill-opacity="0.08" stroke="#ffffff" stroke-opacity="0.16"/>
    <g transform="translate(64 70)" fill="#fff" fill-opacity="0.88">
      <rect width="440" height="26" rx="13"/>
      <rect y="60" width="360" height="20" rx="10" fill-opacity="0.55"/>
      <rect y="96" width="400" height="20" rx="10" fill-opacity="0.55"/>
      <rect y="132" width="300" height="20" rx="10" fill-opacity="0.55"/>
    </g>
    <g transform="translate(740 64)" fill="none" stroke="#fff" stroke-opacity="0.85" stroke-width="10" stroke-linecap="round" stroke-linejoin="round">
      <path d="M70 230c70-10 118-50 146-118 24-56 64-80 120-72"/>
      <path d="M80 140l40-70 84 44 56-76 88 52"/>
      <circle cx="100" cy="230" r="26" fill="#fff" fill-opacity="0.12"/>
      <circle cx="366" cy="40" r="26" fill="#fff" fill-opacity="0.12"/>
    </g>
  </g>
</svg>
