<svg xmlns="http://www.w3.org/2000/svg" width="1600" height="1000" viewBox="0 0 1600 1000">
  <defs>
    <linearGradient id="g" x1="0" y1="0" x2="1" y2="1">
      <stop offset="0" stop-color="#4253e2"/>
      <stop offset="0.55" stop-color="#3e2ec1"/>
      <stop offset="1" stop-color="#3b16ac"/>
    </linearGradient>
    <radialGradient id="r" cx="25%" cy="15%" r="80%">
      <stop offset="0" stop-color="#ffffff" stop-opacity="0.28"/>
      <stop offset="1" stop-color="#ffffff" stop-opacity="0"/>
    </radialGradient>
    <filter id="s" x="-20%" y="-20%" width="140%" height="140%">
      <feDropShadow dx="0" dy="24" stdDeviation="24" flood-color="#0f172a" flood-opacity="0.22"/>
    </filter>
  </defs>
  <rect width="1600" height="1000" fill="url(#g)"/>
  <rect width="1600" height="1000" fill="url(#r)"/>
  <g filter="url(#s)">
    <rect x="120" y="140" width="1360" height="720" rx="60" fill="#0b1020" fill-opacity="0.18" stroke="#ffffff" stroke-opacity="0.22"/>
  </g>
  <g fill="#fff" fill-opacity="0.92">
    <text x="160" y="270" font-family="Inter, system-ui, -apple-system, Segoe UI, Roboto, Arial" font-size="34" letter-spacing="4">PORTFOLIO</text>
    <text x="160" y="360" font-family="Poppins, system-ui, -apple-system, Segoe UI, Roboto, Arial" font-size="84" font-weight="700">Play Amigos</text>
    <text x="160" y="438" font-family="Inter, system-ui, -apple-system, Segoe UI, Roboto, Arial" font-size="34" fill-opacity="0.85">Sports community app • Discovery • Match creation • Chat</text>
  </g>
  <g transform="translate(160 520)">
    <rect width="520" height="260" rx="42" fill="#ffffff" fill-opacity="0.10" stroke="#ffffff" stroke-opacity="0.18"/>
    <g transform="translate(34 34)" fill="none" stroke="#fff" stroke-opacity="0.85" stroke-width="10" stroke-linecap="round" stroke-linejoin="round">
      <path d="M70 130c72-68 156-68 228 0"/>
      <path d="M92 152c58-54 126-54 184 0"/>
      <path d="M120 180c44-40 92-40 136 0"/>
      <circle cx="312" cy="120" r="46" fill="#fff" fill-opacity="0.12"/>
      <path d="M290 120l18 18 38-44"/>
    </g>
  </g>
  <g transform="translate(740 520)">
    <rect width="700" height="260" rx="42" fill="#ffffff" fill-opacity="0.08" stroke="#ffffff" stroke-opacity="0.16"/>
    <g transform="translate(44 44)">
      <rect width="612" height="38" rx="19" fill="#fff" fill-opacity="0.18"/>
      <rect y="68" width="520" height="26" rx="13" fill="#fff" fill-opacity="0.14"/>
      <rect y="116" width="580" height="26" rx="13" fill="#fff" fill-opacity="0.14"/>
      <rect y="164" width="460" height="26" rx="13" fill="#fff" fill-opacity="0.14"/>
    </g>
  </g>
</svg>
