<svg width="617" height="819" viewBox="0 0 617 819" fill="none" xmlns="http://www.w3.org/2000/svg">
<path d="M257.138 7.55756C214.111 43.374 188.574 81.162 181.184 119.936C178.557 133.326 178.803 154.52 181.677 168.814C191.284 216.952 222.815 264.598 286.863 327.77C309.608 350.279 323.403 362.929 375.38 409.179C454.454 479.415 486.806 512.767 509.879 547.516C526.466 572.653 535.827 599.515 535.006 619.724L534.677 626.624L541.657 620.216C595.276 570.928 621.141 518.6 616.461 468.654C613.669 439.491 602.994 412.218 581.892 380.755C557.997 345.185 521.211 307.151 451.005 245.294C389.174 190.912 356.904 160.517 335.145 136.365C295.484 92.252 274.299 53.9711 268.716 16.1831C267.977 11.5007 267.402 5.91455 267.402 3.77875C267.402 1.72504 267.156 -6.10352e-05 266.827 -6.10352e-05C266.417 0.0820923 262.147 3.45013 257.138 7.55756Z" fill="url(#paint0_linear_509_115)"/>
<path d="M530.489 5.33949C519.158 7.80392 509.058 13.7186 500.354 23.0013C493.621 30.1481 488.612 39.1023 486.149 48.4671C484.342 55.1211 484.178 70.072 485.738 76.3974C492.8 104.738 518.337 123.961 546.666 122.154C571.792 120.593 591.909 105.149 599.956 81.3263C602.502 73.7687 603.159 58.407 601.27 49.9458C596.425 28.0123 578.771 10.4327 556.683 5.42163C549.622 3.86082 537.469 3.77868 530.489 5.33949Z" fill="url(#paint1_linear_509_115)"/>
<path d="M78.1334 194.855C56.2095 213.01 32.5612 239.379 21.2297 258.109C-14.1607 316.762 -5.45677 378.127 48.4909 449.595C69.1011 476.951 99.072 508.578 140.539 546.694C146.861 552.527 168.457 571.914 188.574 589.74C243.425 638.453 249.337 643.957 276.024 670.738C302.053 696.778 316.998 714.358 330.71 734.977C347.297 760.115 355.426 782.705 355.59 804.31L355.673 813.921L362.652 807.514C405.515 768.083 430.887 726.187 436.635 685.278C438.031 674.927 437.128 649.872 434.911 639.521C430.395 618.327 419.31 593.354 404.611 571.174C388.764 547.269 372.916 528.622 343.766 499.459C321.021 476.622 309.115 465.614 267.813 429.223C227.167 393.406 216.985 384.206 196.868 365.23C130.439 302.715 96.7729 252.441 89.6291 204.959C88.9722 200.441 88.3974 194.608 88.3974 191.98C88.3974 189.433 88.1511 187.297 87.8227 187.297C87.4121 187.297 83.1423 190.665 78.1334 194.855Z" fill="url(#paint2_linear_509_115)"/>
<path d="M79.7757 701.543C57.5233 704.829 39.4586 719.944 32.0685 741.385C29.1125 750.092 28.3735 764.058 30.5084 773.422C35.1066 794.288 52.4323 812.032 73.2888 817.372C81.0895 819.425 94.638 819.507 102.357 817.782C114.263 814.989 127.483 806.364 134.791 796.67C148.996 777.858 151.213 754.775 140.867 733.581C137.254 726.352 135.53 723.969 129.946 718.301C124.28 712.715 121.899 710.99 114.673 707.458C102.767 701.543 91.9283 699.736 79.7757 701.543Z" fill="url(#paint3_linear_509_115)"/>
<defs>
<linearGradient id="paint0_linear_509_115" x1="398.179" y1="-6.10352e-05" x2="398.179" y2="626.624" gradientUnits="userSpaceOnUse">
<stop stop-color="#4C6EF5"/>
<stop offset="1" stop-color="#3A0CA3"/>
</linearGradient>
<linearGradient id="paint1_linear_509_115" x1="484.672" y1="63.2402" x2="602.357" y2="63.2402" gradientUnits="userSpaceOnUse">
<stop stop-color="#4C6EF5"/>
<stop offset="1" stop-color="#3A0CA3"/>
</linearGradient>
<linearGradient id="paint2_linear_509_115" x1="218.651" y1="187.297" x2="218.651" y2="813.921" gradientUnits="userSpaceOnUse">
<stop stop-color="#4C6EF5"/>
<stop offset="1" stop-color="#3A0CA3"/>
</linearGradient>
<linearGradient id="paint3_linear_509_115" x1="29.2829" y1="759.936" x2="147.298" y2="759.936" gradientUnits="userSpaceOnUse">
<stop stop-color="#4C6EF5"/>
<stop offset="1" stop-color="#3A0CA3"/>
</linearGradient>
</defs>
</svg>
